<svg xmlns="http://www.w3.org/2000/svg" width="1600" height="900" viewBox="0 0 1600 900" role="img" aria-labelledby="title desc">
  <title id="title">Agent Hub agents page demo</title>
  <desc id="desc">Synthetic Agent Hub agents page showing the create-agent form and scheduled agent table.</desc>
  <rect width="1600" height="900" fill="#f8fafc"/><rect width="230" height="900" fill="#0c2344"/>
  <text x="34" y="62" fill="#fff" font-family="Arial" font-size="28" font-weight="700">Spidey</text><circle cx="42" cy="42" r="16" fill="#ef3340"/><text x="33" y="48" fill="#fff" font-family="Arial" font-size="12" font-weight="700">SP</text>
  <text x="30" y="124" fill="#9fb2ca" font-family="Arial" font-size="12" font-weight="700">WORKSPACE</text><g fill="#e7eef7" font-family="Arial" font-size="16"><text x="34" y="164">▦  Dashboard</text><text x="34" y="208">▣  Agents</text><text x="34" y="252">▶  Runs</text><text x="34" y="296">✓  Approvals</text></g><text x="30" y="356" fill="#9fb2ca" font-family="Arial" font-size="12" font-weight="700">LIBRARY</text><g fill="#e7eef7" font-family="Arial" font-size="16"><text x="34" y="396">☆  Skills</text><text x="34" y="440">□  Repos</text></g><text x="30" y="850" fill="#9fb2ca" font-family="Arial" font-size="12">LOCAL · 127.0.0.1:8765</text>
  <text x="270" y="72" fill="#111827" font-family="Arial" font-size="32" font-weight="700">Agents</text><text x="270" y="105" fill="#64748b" font-family="Arial" font-size="16">Scheduled skills · tracked runs · success metrics</text><rect x="1360" y="48" width="125" height="42" rx="7" fill="#ef3340"/><text x="1382" y="75" fill="#fff" font-family="Arial" font-size="15" font-weight="700">+ New agent</text>
  <rect x="270" y="140" width="1245" height="135" rx="10" fill="#fff" stroke="#dbe3ed"/><text x="295" y="172" fill="#111827" font-family="Arial" font-size="17" font-weight="700">+ Create a new agent</text><text x="500" y="172" fill="#64748b" font-family="Arial" font-size="14">Pick a skill, a workspace, and a schedule</text>
  <g font-family="Arial" font-size="12" fill="#64748b" font-weight="700"><text x="295" y="207">NAME</text><text x="580" y="207">SKILL</text><text x="865" y="207">WORKSPACE</text><text x="1150" y="207">SCHEDULE</text></g>
  <g fill="#fff" stroke="#cbd5e1"><rect x="295" y="218" width="250" height="38" rx="5"/><rect x="580" y="218" width="250" height="38" rx="5"/><rect x="865" y="218" width="250" height="38" rx="5"/><rect x="1150" y="218" width="190" height="38" rx="5"/></g>
  <g font-family="Arial" font-size="14" fill="#94a3b8"><text x="310" y="242">e.g. release-watch-hourly</text><text x="595" y="242">— choose a skill —</text><text x="880" y="242">— choose a workspace —</text><text x="1165" y="242">Every hour ▾</text></g><rect x="1360" y="218" width="125" height="38" rx="6" fill="#e5e7eb"/><text x="1390" y="242" fill="#64748b" font-family="Arial" font-size="14" font-weight="700">Create</text>
  <text x="270" y="325" fill="#111827" font-family="Arial" font-size="20" font-weight="700">All agents (8)</text><text x="1360" y="325" fill="#64748b" font-family="Arial" font-size="14">6 active · 2 paused</text>
  <rect x="270" y="350" width="1245" height="420" rx="10" fill="#fff" stroke="#dbe3ed"/>
  <g font-family="Arial" font-size="12" fill="#64748b" font-weight="700"><text x="295" y="385">AGENT</text><text x="545" y="385">SKILL</text><text x="760" y="385">SCHEDULE</text><text x="950" y="385">WORKSPACE</text><text x="1130" y="385">LAST RUN</text><text x="1260" y="385">SUCCESS</text><text x="1400" y="385">COST</text></g>
  <g stroke="#e2e8f0"><line x1="290" y1="405" x2="1495" y2="405"/><line x1="290" y1="475" x2="1495" y2="475"/><line x1="290" y1="545" x2="1495" y2="545"/><line x1="290" y1="615" x2="1495" y2="615"/><line x1="290" y1="685" x2="1495" y2="685"/></g>
  <g font-family="Arial" font-size="14"><g fill="#d92d3a" font-weight="700"><text x="295" y="435">release-watch-hourly</text><text x="295" y="505">sync-pr-queue</text><text x="295" y="575">daily-brief</text><text x="295" y="645">docs-drift-check</text></g><g fill="#334155"><text x="545" y="435">pr-watcher</text><text x="545" y="505">pr-review</text><text x="545" y="575">daily-digest</text><text x="545" y="645">documentation</text><text x="760" y="435">0 * * * *</text><text x="760" y="505">*/15 * * * *</text><text x="760" y="575">30 9 * * *</text><text x="760" y="645">*/30 * * * *</text><text x="950" y="435">acme-web</text><text x="950" y="505">acme-web</text><text x="950" y="575">team-briefs</text><text x="950" y="645">platform</text></g><g fill="#64748b"><text x="1130" y="435">2 min ago</text><text x="1130" y="505">7 min ago</text><text x="1130" y="575">today 09:30</text><text x="1130" y="645">paused</text></g><g fill="#059669" font-weight="700"><text x="1260" y="435">98%</text><text x="1260" y="505">96%</text><text x="1260" y="575">100%</text><text x="1260" y="645">94%</text></g><g fill="#111827"><text x="1400" y="435">$18.42</text><text x="1400" y="505">$12.84</text><text x="1400" y="575">$4.20</text><text x="1400" y="645">$2.16</text></g></g>
  <g font-family="Arial" font-size="11" font-weight="700"><rect x="295" y="449" width="58" height="20" rx="10" fill="#dcfce7"/><text x="309" y="463" fill="#166534">ACTIVE</text><rect x="295" y="519" width="58" height="20" rx="10" fill="#dcfce7"/><text x="309" y="533" fill="#166534">ACTIVE</text><rect x="295" y="589" width="58" height="20" rx="10" fill="#dcfce7"/><text x="309" y="603" fill="#166534">ACTIVE</text><rect x="295" y="659" width="65" height="20" rx="10" fill="#e5e7eb"/><text x="307" y="673" fill="#64748b">PAUSED</text></g>
  <text x="270" y="840" fill="#94a3b8" font-family="Arial" font-size="12">DEMO SCREENSHOT · SYNTHETIC DATA · NAMES, COUNTS, COSTS, AND PATHS ARE ILLUSTRATIVE</text>
</svg>
