<svg xmlns="http://www.w3.org/2000/svg" width="1600" height="900" viewBox="0 0 1600 900" role="img" aria-labelledby="title desc">
  <title id="title">Agent Hub running agent demo</title>
  <desc id="desc">Synthetic Agent Hub run detail page showing a running agent, metrics, and streamed logs.</desc>
  <rect width="1600" height="900" fill="#f8fafc"/><rect width="230" height="900" fill="#0c2344"/>
  <text x="34" y="62" fill="#fff" font-family="Arial" font-size="28" font-weight="700">Spidey</text><circle cx="42" cy="42" r="16" fill="#ef3340"/><text x="33" y="48" fill="#fff" font-family="Arial" font-size="12" font-weight="700">SP</text>
  <g fill="#e7eef7" font-family="Arial" font-size="16"><text x="34" y="164">▦  Dashboard</text><text x="34" y="208">▣  Agents</text><text x="34" y="252">▶  Runs</text><text x="34" y="296">✓  Approvals</text><text x="34" y="396">☆  Skills</text><text x="34" y="440">□  Repos</text></g><text x="30" y="124" fill="#9fb2ca" font-family="Arial" font-size="12" font-weight="700">WORKSPACE</text><text x="30" y="356" fill="#9fb2ca" font-family="Arial" font-size="12" font-weight="700">LIBRARY</text>
  <text x="270" y="72" fill="#111827" font-family="Arial" font-size="32" font-weight="700">Run #2048</text><text x="270" y="105" fill="#64748b" font-family="Arial" font-size="16">sync-pr-queue · live execution detail</text><rect x="1330" y="48" width="110" height="38" rx="18" fill="#fef3c7"/><text x="1352" y="73" fill="#92400e" font-family="Arial" font-size="14" font-weight="700">RUNNING</text>
  <rect x="270" y="145" width="1245" height="110" rx="10" fill="#fff" stroke="#dbe3ed"/>
  <g font-family="Arial"><text x="300" y="180" fill="#64748b" font-size="12" font-weight="700">AGENT</text><text x="300" y="211" fill="#111827" font-size="18" font-weight="700">sync-pr-queue</text><text x="570" y="180" fill="#64748b" font-size="12" font-weight="700">SKILL</text><text x="570" y="211" fill="#111827" font-size="18">pr-review</text><text x="780" y="180" fill="#64748b" font-size="12" font-weight="700">MODEL</text><text x="780" y="211" fill="#111827" font-size="18">sonnet</text><text x="960" y="180" fill="#64748b" font-size="12" font-weight="700">ELAPSED</text><text x="960" y="211" fill="#111827" font-size="18">00:01:42</text><text x="1140" y="180" fill="#64748b" font-size="12" font-weight="700">COST</text><text x="1140" y="211" fill="#111827" font-size="18">$0.31</text></g>
  <rect x="270" y="285" width="1245" height="95" rx="10" fill="#fff" stroke="#dbe3ed"/><text x="300" y="318" fill="#64748b" font-family="Arial" font-size="12" font-weight="700">WORKING DIRECTORY</text><text x="300" y="348" fill="#111827" font-family="monospace" font-size="16">/workspace/acme-web</text><text x="780" y="318" fill="#64748b" font-family="Arial" font-size="12" font-weight="700">ATTEMPT</text><text x="780" y="348" fill="#111827" font-family="Arial" font-size="16">1 of 2</text><text x="930" y="318" fill="#64748b" font-family="Arial" font-size="12" font-weight="700">MCP SCOPE</text><text x="930" y="348" fill="#111827" font-family="Arial" font-size="16">github · slack</text>
  <text x="270" y="425" fill="#111827" font-family="Arial" font-size="20" font-weight="700">Live log</text><text x="1440" y="425" fill="#64748b" font-family="Arial" font-size="13">stream-json</text>
  <rect x="270" y="450" width="1245" height="330" rx="10" fill="#111827"/><g font-family="monospace" font-size="15"><text x="300" y="490" fill="#94a3b8">09:41:02  system  started run #2048</text><text x="300" y="525" fill="#67e8f9">09:41:05  claude  loaded skill: pr-review</text><text x="300" y="560" fill="#c4b5fd">09:41:18  tool    git fetch --all --prune</text><text x="300" y="595" fill="#c4b5fd">09:41:31  tool    gh pr list --state open</text><text x="300" y="630" fill="#fbbf24">09:41:48  agent   reviewing pull request #842</text><text x="300" y="665" fill="#94a3b8">09:42:11  agent   6 files inspected · 2 comments drafted</text><text x="300" y="700" fill="#fbbf24">09:42:44  approval pending: github-pr-comment</text><text x="300" y="735" fill="#34d399">09:42:44  system  waiting for human approval …</text></g>
  <text x="270" y="845" fill="#94a3b8" font-family="Arial" font-size="12">DEMO SCREENSHOT · SYNTHETIC DATA · LOG CONTENT IS ILLUSTRATIVE</text>
</svg>
